<svg version="1.1" id="Layer_1" xmlns="http://www.w3.org/2000/svg" xmlns:xlink="http://www.w3.org/1999/xlink" x="0px" y="0px"
	 width="100%" viewBox="0 0 639 241" enable-background="new 0 0 639 241" xml:space="preserve">
<path fill="#DEFF02" opacity="1.000000" stroke="none" 
	d="
M149.000000,242.000000 
	C134.979111,242.000000 120.958214,242.000000 106.336609,241.635315 
	C105.055290,240.856110 104.416168,240.180176 103.688126,240.064682 
	C71.814713,235.008286 45.353947,220.385941 25.484133,194.830032 
	C14.467901,180.661316 7.267272,164.500565 3.993571,146.732269 
	C2.966940,141.160141 1.996279,135.577713 1.000000,130.000000 
	C1.000000,123.645599 1.000000,117.291206 1.365073,110.287109 
	C1.486764,107.091606 1.243382,104.545807 1.000000,102.000000 
	C1.000000,101.250000 1.000000,100.500000 1.356037,99.251579 
	C2.457887,97.160362 3.583529,95.637703 3.892582,93.964249 
	C8.589871,68.529282 20.423960,47.244999 40.126678,30.314569 
	C53.727654,18.627329 69.128082,10.504293 86.433479,6.031657 
	C93.890991,4.104239 101.473999,2.662421 109.000000,1.000000 
	C156.354233,1.000000 203.708450,1.000000 251.531342,1.468657 
	C252.000000,22.196873 252.000000,42.456432 252.000000,62.000961 
	C235.403336,62.000961 219.492676,62.001118 203.582001,62.000927 
	C175.881226,62.000599 148.160950,61.374081 120.487045,62.236034 
	C104.072220,62.747303 91.252747,71.405243 83.108070,85.832054 
	C73.671631,102.546959 72.416229,120.670807 77.232910,138.800034 
	C82.355827,158.081894 94.389137,171.956039 114.472565,176.582809 
	C129.808014,180.115753 145.342331,178.449188 160.235825,173.737213 
	C173.045837,169.684372 182.073730,158.769455 184.069290,146.699066 
	C164.748703,146.699066 145.495544,146.699066 125.625961,146.699066 
	C125.625961,131.282211 125.625961,116.276482 125.625961,101.237961 
	C167.639191,101.237961 209.573212,101.237961 251.699707,101.237961 
	C251.699707,147.194717 251.699707,192.913132 251.699707,238.637192 
	C235.010681,238.637192 218.624588,238.637192 201.819305,238.637192 
	C201.819305,232.070297 201.819305,225.857437 201.819305,220.668533 
	C190.756683,226.020523 179.817307,231.781403 168.480820,236.609985 
	C162.336624,239.226990 155.515671,240.255127 149.000000,242.000000 
z"/>
<path fill="#FFFFFF" opacity="1.000000" stroke="none" 
	d="
M149.468658,242.000000 
	C155.515671,240.255127 162.336624,239.226990 168.480820,236.609985 
	C179.817307,231.781403 190.756683,226.020523 201.819305,220.668533 
	C201.819305,225.857437 201.819305,232.070297 201.819305,238.637192 
	C218.624588,238.637192 235.010681,238.637192 251.699707,238.637192 
	C251.699707,192.913132 251.699707,147.194717 251.699707,101.237961 
	C209.573212,101.237961 167.639191,101.237961 125.625961,101.237961 
	C125.625961,116.276482 125.625961,131.282211 125.625961,146.699066 
	C145.495544,146.699066 164.748703,146.699066 184.069290,146.699066 
	C182.073730,158.769455 173.045837,169.684372 160.235825,173.737213 
	C145.342331,178.449188 129.808014,180.115753 114.472565,176.582809 
	C94.389137,171.956039 82.355827,158.081894 77.232910,138.800034 
	C72.416229,120.670807 73.671631,102.546959 83.108070,85.832054 
	C91.252747,71.405243 104.072220,62.747303 120.487045,62.236034 
	C148.160950,61.374081 175.881226,62.000599 203.582001,62.000927 
	C219.492676,62.001118 235.403336,62.000961 252.000000,62.000961 
	C252.000000,42.456432 252.000000,22.196873 252.000000,1.468657 
	C379.833344,1.000000 507.666656,0.996581 635.500000,1.041451 
	C637.000122,1.041978 638.500000,1.666657 639.531372,2.499995 
	C552.488953,3.000000 465.915222,3.000000 378.716309,3.000000 
	C379.616760,4.897234 380.205292,6.187695 380.835510,7.457441 
	C389.640686,25.197290 398.519684,42.901119 407.197784,60.702862 
	C408.745667,63.878063 410.464935,65.104675 414.210938,65.119843 
	C442.802032,65.235611 471.391846,65.665131 499.981842,66.018959 
	C500.917664,66.030533 501.850616,66.276535 503.264343,66.483429 
	C503.264343,124.413727 503.264343,182.118317 503.264343,239.729950 
	C527.050110,239.729950 550.311707,239.729950 574.093811,239.729950 
	C574.093811,181.757919 574.093811,124.053329 574.093811,66.000000 
	C596.410095,66.000000 618.205078,66.000000 640.000000,66.000000 
	C640.000000,124.628166 640.000000,183.256332 640.000000,242.000000 
	C476.645782,242.000000 313.291565,242.000000 149.468658,242.000000 
M408.997162,115.453819 
	C405.455505,107.572868 402.160980,99.569504 398.327942,91.832916 
	C384.373840,63.668030 370.162872,35.630207 356.276154,7.432471 
	C354.639923,4.110007 352.930267,2.894046 349.253967,2.917838 
	C324.763550,3.076332 300.271667,3.000066 275.780243,3.000084 
	C274.332458,3.000085 272.884674,3.000084 271.295959,3.000084 
	C271.295959,82.224480 271.295959,160.923660 271.295959,239.649719 
	C294.307251,239.649719 317.020752,239.649719 340.436584,239.649719 
	C339.880981,198.403412 339.330231,157.515930 338.775146,116.309395 
	C339.205566,117.024216 339.678101,117.626877 339.962097,118.308128 
	C343.781403,127.470520 347.092743,136.880569 351.461700,145.771423 
	C366.333832,176.036591 381.640411,206.088089 396.580597,236.320267 
	C398.096497,239.387741 399.811829,240.083359 402.945343,240.067596 
	C427.269531,239.945129 451.594604,240.004272 475.919403,239.990158 
	C477.520569,239.989227 479.121674,239.847687 480.622070,239.776337 
	C480.622070,191.292419 480.622070,143.251862 480.622070,95.002319 
	C459.096588,95.002319 437.948273,95.028053 416.800201,94.971237 
	C414.013153,94.963753 412.922791,96.060799 412.970245,98.829041 
	C413.073029,104.825157 413.043976,110.824860 412.964081,116.821701 
	C412.947418,118.072205 412.477600,119.316666 411.997620,121.610451 
	C410.610260,119.055435 409.839417,117.635803 408.997162,115.453819 
z"/>
<path fill="#DEFF02" opacity="1.000000" stroke="none" 
	d="
M640.000000,65.531342 
	C618.205078,66.000000 596.410095,66.000000 574.093811,66.000000 
	C574.093811,124.053329 574.093811,181.757919 574.093811,239.729950 
	C550.311707,239.729950 527.050110,239.729950 503.264343,239.729950 
	C503.264343,182.118317 503.264343,124.413727 503.264343,66.483429 
	C501.850616,66.276535 500.917664,66.030533 499.981842,66.018959 
	C471.391846,65.665131 442.802032,65.235611 414.210938,65.119843 
	C410.464935,65.104675 408.745667,63.878063 407.197784,60.702862 
	C398.519684,42.901119 389.640686,25.197290 380.835510,7.457441 
	C380.205292,6.187695 379.616760,4.897234 378.716309,3.000000 
	C465.915222,3.000000 552.488953,3.000000 639.531372,3.000000 
	C640.000000,23.687561 640.000000,44.375122 640.000000,65.531342 
z"/>
<path fill="#FFFFFF" opacity="1.000000" stroke="none" 
	d="
M1.000000,130.468658 
	C1.996279,135.577713 2.966940,141.160141 3.993571,146.732269 
	C7.267272,164.500565 14.467901,180.661316 25.484133,194.830032 
	C45.353947,220.385941 71.814713,235.008286 103.688126,240.064682 
	C104.416168,240.180176 105.055290,240.856110 105.867950,241.635315 
	C71.070694,242.000000 36.141392,242.000000 1.000000,242.000000 
	C1.000000,204.979370 1.000000,167.958344 1.000000,130.468658 
z"/>
<path fill="#FFFFFF" opacity="1.000000" stroke="none" 
	d="
M108.531342,1.000000 
	C101.473999,2.662421 93.890991,4.104239 86.433479,6.031657 
	C69.128082,10.504293 53.727654,18.627329 40.126678,30.314569 
	C20.423960,47.244999 8.589871,68.529282 3.892582,93.964249 
	C3.583529,95.637703 2.457887,97.160362 1.356037,98.876579 
	C1.000000,66.402847 1.000000,33.805687 1.000000,1.000000 
	C36.687290,1.000000 72.374985,1.000000 108.531342,1.000000 
z"/>
<path fill="#FFFFFF" opacity="1.000000" stroke="none" 
	d="
M1.000000,102.444168 
	C1.243382,104.545807 1.486764,107.091606 1.365073,109.818710 
	C1.000000,107.629440 1.000000,105.258888 1.000000,102.444168 
z"/>
<path fill="#DEFF02" opacity="1.000000" stroke="none" 
	d="
M409.032867,115.834991 
	C409.839417,117.635803 410.610260,119.055435 411.997620,121.610451 
	C412.477600,119.316666 412.947418,118.072205 412.964081,116.821701 
	C413.043976,110.824860 413.073029,104.825157 412.970245,98.829041 
	C412.922791,96.060799 414.013153,94.963753 416.800201,94.971237 
	C437.948273,95.028053 459.096588,95.002319 480.622070,95.002319 
	C480.622070,143.251862 480.622070,191.292419 480.622070,239.776337 
	C479.121674,239.847687 477.520569,239.989227 475.919403,239.990158 
	C451.594604,240.004272 427.269531,239.945129 402.945343,240.067596 
	C399.811829,240.083359 398.096497,239.387741 396.580597,236.320267 
	C381.640411,206.088089 366.333832,176.036591 351.461700,145.771423 
	C347.092743,136.880569 343.781403,127.470520 339.962097,118.308128 
	C339.678101,117.626877 339.205566,117.024216 338.775146,116.309395 
	C339.330231,157.515930 339.880981,198.403412 340.436584,239.649719 
	C317.020752,239.649719 294.307251,239.649719 271.295959,239.649719 
	C271.295959,160.923660 271.295959,82.224480 271.295959,3.000084 
	C272.884674,3.000084 274.332458,3.000085 275.780243,3.000084 
	C300.271667,3.000066 324.763550,3.076332 349.253967,2.917838 
	C352.930267,2.894046 354.639923,4.110007 356.276154,7.432471 
	C370.162872,35.630207 384.373840,63.668030 398.327942,91.832916 
	C402.160980,99.569504 405.455505,107.572868 409.032867,115.834991 
z"/>
</svg>