<?xml version="1.0" encoding="utf-8"?>
<!-- Generator: Adobe Illustrator 14.0.0, SVG Export Plug-In . SVG Version: 6.00 Build 43363)  -->
<!DOCTYPE svg PUBLIC "-//W3C//DTD SVG 1.1//EN" "http://www.w3.org/Graphics/SVG/1.1/DTD/svg11.dtd">
<svg version="1.1" id="Ebene_1" xmlns="http://www.w3.org/2000/svg" xmlns:xlink="http://www.w3.org/1999/xlink" x="0px" y="0px"
	 width="1024px" height="170px" viewBox="0 0 1024 170" enable-background="new 0 0 1024 170" xml:space="preserve">
<path fill-rule="evenodd" clip-rule="evenodd" fill="#023263" d="M808.866,122.439c2.092,5.544,4.532,9.965,7.35,13.256
	c4.896,5.746,10.99,8.619,18.256,8.619c3.934,0,7.336-1.248,10.182-3.737c2.9-2.497,4.351-5.963,4.351-10.426
	c0-4.009-1.45-7.51-4.351-10.48c-1.883-1.89-5.857-4.728-11.925-8.5l-10.543-6.569c-3.18-2.008-5.704-4.037-7.602-6.088
	c-3.486-3.891-5.236-8.187-5.236-12.893c0-6.227,2.071-11.408,6.206-15.543c4.142-4.135,9.623-6.206,16.45-6.206
	c2.816,0,6.185,0.701,10.125,2.106c3.975,1.363,6.241,2.05,6.806,2.05c1.527,0,2.566-0.363,3.138-1.084
	c0.6-0.722,1.061-1.75,1.381-3.072h2.531l2.713,26.271h-2.95c-2.015-7.911-5.236-13.441-9.699-16.575
	c-4.421-3.127-8.801-4.696-13.138-4.696c-3.375,0-6.325,1.004-8.856,3.012c-2.496,1.97-3.737,4.721-3.737,8.253
	c0,3.18,0.962,5.892,2.887,8.134c1.932,2.294,4.924,4.686,8.981,7.176l10.844,6.68c6.792,4.185,11.568,8.02,14.344,11.521
	c2.733,3.528,4.094,7.705,4.094,12.523c0,6.472-2.448,11.883-7.343,16.213c-4.867,4.345-11.095,6.513-18.688,6.513
	c-3.808,0-7.371-6.708-11.548-8.151c3.417-7.964-0.391-3.975-0.99-3.975c-1.45,0-4.449-2.873-4.965-1.98
	c-0.488,0.879-7.356,1.967-7.518,2.971l-6.952-17.44l2.573,2.12H808.866"/>
<path fill="#023263" d="M168.942,145.716c4.257-0.439,6.983-1.388,8.189-2.852c1.2-1.507,1.807-4.979,1.807-10.404V90.684
	c0-3.714-0.586-6.126-1.754-7.225c-1.179-1.144-3.835-1.806-7.984-2.015v-1.907h20.33l23.807,51.871l22.74-51.871h20.487v1.907
	c-3.814,0.272-6.275,0.973-7.385,2.113c-1.098,1.102-1.656,3.479-1.656,7.127v45.744c0,3.759,0.559,6.157,1.656,7.231
	c1.109,1.046,3.57,1.729,7.385,2.057v1.862h-28.82v-1.862c4.149-0.327,6.729-1.066,7.733-2.21c1.035-1.165,1.552-3.934,1.559-8.277
	V89.027l-26.313,58.551h-1.405l-25.856-56.139v41.021c0,5.62,0.812,9.295,2.454,11.004c1.07,1.102,3.462,1.854,7.186,2.252v1.862
	h-24.158V145.716"/>
<path fill="#023263" d="M372.307,79.575v1.904c-3.947,0.272-6.514,0.945-7.674,2.015c-1.179,1.036-1.765,3.448-1.765,7.224v32.894
	c0,5.39,0.735,9.588,2.214,12.601c2.74,5.494,7.946,8.242,15.616,8.242c8.396,0,14.038-2.817,16.921-8.438
	c1.607-3.146,2.406-8.006,2.406-14.561V94.692c0-5.592-0.67-9.093-2.005-10.498c-1.343-1.437-3.885-2.343-7.633-2.716v-1.904h23.8
	v1.904c-3.985,0.443-6.6,1.409-7.834,2.915c-1.207,1.478-1.807,4.905-1.807,10.299v26.764c0,7.099-1.091,12.636-3.264,16.624
	c-4.02,7.322-11.651,10.99-22.899,10.99c-11.112,0-18.682-3.619-22.694-10.844c-2.176-3.884-3.261-9.002-3.261-15.369v-32.14
	c0-3.748-0.585-6.14-1.757-7.175c-1.144-1.07-3.657-1.757-7.534-2.064v-1.904H372.307"/>
<path fill-rule="evenodd" clip-rule="evenodd" fill="#023263" d="M88.384,147.578v-1.862c2.64-0.3,4.62-1.297,5.924-3.005
	c1.335-1.716,3.615-6.346,6.827-13.912l21.442-50.469h2.008l25.613,58.3c1.708,3.877,3.064,6.297,4.062,7.231
	c1.036,0.906,2.766,1.527,5.171,1.854v1.862h-26.156v-1.862c3.016-0.265,4.958-0.586,5.818-0.948
	c0.872-0.397,1.308-1.359,1.308-2.866c0-0.502-0.164-1.395-0.498-2.663c-0.335-1.27-0.81-2.608-1.409-4.01l-4.268-9.896h-26.913
	c-2.678,6.729-4.285,10.844-4.822,12.35c-0.498,1.479-0.749,2.65-0.749,3.515c0,1.743,0.7,2.95,2.109,3.619
	c0.868,0.404,2.503,0.697,4.919,0.899v1.862H88.384 M132.775,121.163l-11.903-28.312l-11.753,28.312H132.775z"/>
<path fill-rule="evenodd" clip-rule="evenodd" fill="#023263" d="M310.834,108.347c4.354-2.009,6.526-5.606,6.526-10.795
	c0-6.126-2.507-10.258-7.527-12.402c-2.782-1.171-6.997-1.757-12.653-1.757c-2.147,0-3.469,0.185-3.971,0.551
	c-0.499,0.373-0.75,1.371-0.75,3.013v23.203l9.791-0.153C305.698,109.937,308.557,109.386,310.834,108.347 M272.125,145.751
	c4.149-0.224,6.827-0.864,8.033-1.903c1.234-1.074,1.855-3.529,1.855-7.378V90.718c0-3.776-0.621-6.203-1.855-7.273
	c-1.206-1.108-3.884-1.757-8.033-1.966v-1.904h28.817c8.235,0,14.762,1.325,19.581,3.968c4.856,2.643,7.283,7.2,7.283,13.654
	c0,4.86-1.691,8.542-5.069,11.053c-1.907,1.437-4.77,2.629-8.591,3.563c4.721,1.137,8.755,3.047,12.105,5.725
	c3.347,2.643,5.017,6.359,5.017,11.15c0,8.033-3.713,13.549-11.146,16.562c-3.912,1.583-8.73,2.371-14.459,2.371h-33.538V145.751z
	 M314.146,140.828c3.549-2.036,5.327-5.955,5.327-11.743c0-5.753-2.078-9.693-6.228-11.799c-4.155-2.105-9.438-3.166-15.867-3.166
	c-1.576,0-2.576,0-3.013,0c-0.397,0-1.042-0.014-1.907-0.049v25.613c0,1.771,0.502,2.929,1.51,3.458
	c0.997,0.502,3.326,0.754,6.974,0.754C306.2,143.896,310.597,142.878,314.146,140.828z"/>
<path fill-rule="evenodd" clip-rule="evenodd" fill="#023263" d="M423.817,145.758c3.958-0.362,6.416-1.137,7.385-2.308
	c0.973-1.172,1.458-3.892,1.458-8.18V90.725c0-3.611-0.551-5.969-1.656-7.074c-1.07-1.137-3.466-1.858-7.187-2.158v-1.911h28.479
	c5.92,0,10.86,0.756,14.808,2.263c7.499,2.841,11.247,8.082,11.247,15.714c0,5.126-1.67,9.059-5.021,11.799
	c-3.313,2.748-7.831,4.554-13.56,5.426l21.195,26.059c1.304,1.604,2.611,2.782,3.912,3.515c1.308,0.739,2.984,1.199,5.027,1.401
	v1.862h-16.575l-24.504-31.631l-5.722,0.251v20.236c0,3.814,0.565,6.241,1.709,7.28c1.168,1.004,3.695,1.673,7.583,2.001v1.862
	h-28.58V145.758 M458.974,110.117c5.453-2.245,8.183-6.464,8.183-12.656c0-5.962-2.444-10.027-7.336-12.203
	c-2.604-1.171-6.066-1.757-10.387-1.757c-2.914,0-4.707,0.212-5.38,0.648c-0.634,0.401-0.948,1.374-0.948,2.915v25.354
	C450.504,112.154,455.786,111.387,458.974,110.117z"/>
<path fill="#023263" d="M543.158,80.032c3.849,1.105,6.066,1.656,6.639,1.656c1.464,0,2.503-0.286,3.109-0.851
	c0.635-0.572,1.172-1.391,1.604-2.461h2.26l0.809,21.645h-2.363c-2.106-4.986-4.289-8.71-6.527-11.15
	c-4.052-4.285-9.323-6.426-15.815-6.426c-6.604,0-12.405,2.507-17.426,7.527c-4.989,4.986-7.482,13.222-7.482,24.706
	c0,9.47,2.493,16.876,7.482,22.203c4.985,5.313,11.144,7.978,18.479,7.978c1.241,0,2.692-0.111,4.366-0.355
	c1.673-0.23,3.263-0.6,4.77-1.095c2.447-0.81,3.975-1.492,4.574-2.064c0.6-0.6,0.906-1.479,0.906-2.608v-16.429
	c0-3.946-0.571-6.401-1.715-7.378c-1.103-0.962-3.543-1.575-7.329-1.813v-1.903h26.212v1.903c-2.552,0.174-4.232,0.586-5.069,1.262
	c-1.401,1.067-2.112,3.285-2.112,6.625v20.236c0,1.206-2.964,2.811-8.885,4.818c-5.899,2.016-11.568,3.013-17.021,3.013
	c-10.048,0-18.518-2.929-25.407-8.779c-7.604-6.464-11.404-15.132-11.404-26.018c0-9.574,3.03-17.768,9.093-24.602
	c6.66-7.534,15.495-11.296,26.513-11.296C535.396,78.375,539.309,78.923,543.158,80.032"/>
<path fill="#023263" d="M601.636,168.609c0.034-0.042,33.366-34.288,84.069-42.426c47.627-7.636,75.123,3.947,115.896,22.733
	c15.215,7.015,24.797,8.911,41.546,8.229c5.439-0.21,7.447-0.983,7.447-0.983l2.064,1.98c0,0-3.85,0.955-9.428,1.179
	c-17.07,0.689-27.008-1.27-42.537-8.424c-40.361-18.604-67.494-30.125-114.64-22.565c-28.13,4.519-55.744,18.312-77.39,36.728
	c-3.891,3.313-6.178,5.809-6.178,5.809L601.636,168.609z"/>
<path fill="none" stroke="#023263" stroke-width="0.147" stroke-miterlimit="3.864" d="M601.636,168.609
	c0.034-0.042,33.366-34.288,84.069-42.426c47.627-7.636,75.123,3.947,115.896,22.733c15.215,7.015,24.797,8.911,41.546,8.229
	c5.439-0.21,7.447-0.983,7.447-0.983l2.064,1.98c0,0-3.85,0.955-9.428,1.179c-17.07,0.689-27.008-1.27-42.537-8.424
	c-40.361-18.604-67.494-30.125-114.64-22.565c-28.13,4.519-55.744,18.312-77.39,36.728c-3.891,3.313-6.178,5.809-6.178,5.809
	L601.636,168.609z"/>
<path fill="#023263" d="M764.447,54.789c-0.077,0.042-19.938,10.303-45.18,4.226c-12.608-3.033-30.425-12.325-47.035-21.627
	c-8.326-4.662-16.38-9.362-23.388-13.319c-6.967-3.933-12.88-7.141-16.974-8.853c-16.436-6.89-34.866-12.803-55.897-11.618
	c-7.594,0.422-23.061,2.371-30.229,6.506l-0.719-1.949c0,0,2.189-1.409,7.322-2.95c5.056-1.52,12.774-3.18,23.493-3.779
	c21.526-1.213,40.326,4.843,56.866,11.785c4.149,1.74,10.153,4.982,17.203,8.968c7.008,3.954,15.069,8.646,23.389,13.308
	c16.659,9.341,34.218,18.465,46.477,21.415c12.97,3.121,31.087,2.371,43.304-3.898L764.447,54.789z"/>
<path fill="none" stroke="#023263" stroke-width="0.294" stroke-miterlimit="3.864" d="M764.447,54.789
	c-0.077,0.042-19.938,10.303-45.18,4.226c-12.608-3.033-30.425-12.325-47.035-21.627c-8.326-4.662-16.38-9.362-23.388-13.319
	c-6.967-3.933-12.88-7.141-16.974-8.853c-16.436-6.89-34.866-12.803-55.897-11.618c-7.594,0.422-23.061,2.371-30.229,6.506
	l-0.719-1.949c0,0,2.189-1.409,7.322-2.95c5.056-1.52,12.774-3.18,23.493-3.779c21.526-1.213,40.326,4.843,56.866,11.785
	c4.149,1.74,10.153,4.982,17.203,8.968c7.008,3.954,15.069,8.646,23.389,13.308c16.659,9.341,34.218,18.465,46.477,21.415
	c12.97,3.121,31.087,2.371,43.304-3.898L764.447,54.789z"/>
<path fill="#023263" d="M902.572,79.561v1.911c-3.946,0.265-6.513,0.938-7.67,2.008c-1.186,1.035-1.771,3.448-1.771,7.231v32.893
	c0,5.384,0.739,9.589,2.218,12.601c2.747,5.488,7.949,8.235,15.62,8.235c8.396,0,14.037-2.816,16.917-8.438
	c1.604-3.145,2.413-8.005,2.413-14.56V94.679c0-5.593-0.677-9.086-2.009-10.501c-1.346-1.433-3.891-2.339-7.636-2.706v-1.911h23.8
	v1.911c-3.988,0.436-6.597,1.409-7.831,2.915c-1.206,1.472-1.806,4.906-1.806,10.292v26.764c0,7.099-1.095,12.636-3.264,16.624
	c-4.023,7.329-11.659,10.99-22.9,10.99c-11.115,0-18.681-3.612-22.69-10.844c-2.183-3.884-3.264-9.003-3.264-15.369V90.711
	c0-3.748-0.586-6.14-1.758-7.182c-1.144-1.07-3.653-1.757-7.531-2.057v-1.911H902.572"/>
<path fill="#023263" d="M895.99,65.426c0-3.292,2.664-5.962,5.955-5.962s5.969,2.671,5.969,5.962c0,3.295-2.678,5.955-5.969,5.955
	S895.99,68.721,895.99,65.426"/>
<path fill="#023263" d="M914.497,65.426c0-3.292,2.664-5.962,5.955-5.962s5.969,2.671,5.969,5.962c0,3.295-2.678,5.955-5.969,5.955
	S914.497,68.721,914.497,65.426"/>
<path fill-rule="evenodd" clip-rule="evenodd" fill="#023263" d="M954.175,145.82c3.752-0.397,6.192-1.066,7.336-2.001
	c1.13-0.97,1.701-3.396,1.701-7.287V90.791c0-3.748-0.544-6.161-1.659-7.234c-1.102-1.07-3.557-1.733-7.378-2.005v-1.907h27.719
	c9.337,0,17.237,1.534,23.702,4.62c11.646,5.519,17.475,15.394,17.475,29.626c0,5.125-1.053,9.992-3.166,14.608
	c-2.078,4.623-5.223,8.521-9.441,11.701c-2.678,2.009-5.453,3.528-8.333,4.574c-5.251,1.938-11.722,2.901-19.379,2.901h-28.576
	V145.82 M974.871,143.06c0.83,0.544,2.539,0.809,5.119,0.809c8.033,0,14.644-1.59,19.824-4.77
	c7.971-4.882,11.959-13.235,11.959-25.063c0-10.543-3.277-18.479-9.846-23.803c-5.621-4.546-13.068-6.827-22.343-6.827
	c-2.314,0-3.884,0.251-4.714,0.756c-0.809,0.502-1.213,1.607-1.213,3.315v52.269C973.658,141.428,974.063,142.529,974.871,143.06z"
	/>
<path fill="#023263" d="M-0.933,145.423c4.665-0.509,7.577-1.359,8.741-2.559c1.165-1.241,1.75-4.449,1.75-9.616V81.58
	c0-4.271-0.666-7.04-1.987-8.326c-1.276-1.279-4.111-2.078-8.504-2.392v-2.207h33.147v2.207c-4.393,0.314-7.249,1.112-8.563,2.392
	c-1.318,1.28-1.984,4.055-1.984,8.326v23.239h36.174V81.58c0-4.271-0.642-7.04-1.921-8.326c-1.283-1.279-4.139-2.078-8.56-2.392
	v-2.207H80.5v2.207c-4.393,0.314-7.241,1.112-8.563,2.392c-1.287,1.28-1.921,4.055-1.921,8.326v53.07
	c0,4.352,0.635,7.141,1.921,8.382c1.321,1.206,4.17,2.001,8.563,2.392v2.155H47.36v-2.155c4.689-0.467,7.604-1.317,8.734-2.559
	c1.161-1.241,1.747-4.449,1.747-9.616v-23.187H21.667v24.588c0,4.352,0.666,7.141,1.984,8.382c1.314,1.241,4.17,2.043,8.563,2.392
	v2.155H-0.933V145.423"/>
<path fill="#FFFFFF" d="M601.922,169.739c0,0,33.617-34.399,83.957-42.475c35.41-5.683,57.844-0.815,83.525,8.912
	c28.988,10.989,37.914,18.611,53.213,21.011c15.293,2.385,29.679,0.307,29.679,0.307L763.68,54.004c0,0-19.302,9.937-44.161,3.954
	c-24.86-5.983-70.744-36.83-87.229-43.75c-16.485-6.91-35.104-12.894-56.386-11.701c-21.275,1.2-30.529,6.583-30.529,6.583
	L601.922,169.739"/>
<path fill="#E42631" d="M715.104,88.877c-5.537-0.708-24.295-2.615-42.914,1.116c-10.809,2.161-28.918,11.073-36.763,16.757
	c-26.317,19.058-33.521,63.798-33.521,63.798L544.65,8.601c0,0,12.579,0.338,24.553,2.73c11.966,2.392,35.682,8.64,60.827,21.614
	c22.768,11.747,77.361,49.649,85.646,55.426c6.262,0.548,28.521,1.705,38.423-8.392c7.643-7.796,8.116-14.323,9.19-20.236
	c1.074-5.882,0-7.061,0-7.061L853.3,158.114c0,0-43.206-13.131-74.056-30.821C751.644,111.471,721.22,92.671,715.104,88.877"/>
</svg>
