<?xml version="1.0" standalone="no"?>
<!DOCTYPE svg PUBLIC "-//W3C//DTD SVG 20010904//EN"
 "http://www.w3.org/TR/2001/REC-SVG-20010904/DTD/svg10.dtd">
<svg version="1.0" xmlns="http://www.w3.org/2000/svg"
 width="1024.000000pt" height="232.000000pt" viewBox="0 0 1024.000000 232.000000"
 preserveAspectRatio="xMidYMid meet">

<g transform="translate(0.000000,232.000000) scale(0.100000,-0.100000)"
fill="#000000" stroke="none">
<path d="M3122 1168 l3 -503 112 -2 113 -2 2 286 3 285 125 -281 c143 -322
117 -294 274 -289 l89 3 121 279 121 279 5 -279 5 -279 110 0 110 0 0 500 0
500 -129 0 -129 0 -158 -355 c-87 -195 -161 -361 -166 -368 -5 -9 -65 113
-174 355 l-166 368 -137 3 -136 3 2 -503z"/>
<path d="M4636 1178 c-120 -271 -220 -497 -222 -503 -5 -12 236 -20 252 -8 5
4 28 50 50 102 l39 93 260 0 260 -1 37 -83 c55 -125 38 -114 182 -116 69 -1
126 2 125 6 0 4 -100 230 -223 502 l-222 495 -160 3 -160 2 -218 -492z m472
72 c45 -102 79 -186 77 -188 -4 -4 -336 -4 -341 1 -2 1 32 86 75 188 42 101
81 193 85 204 l8 20 8 -20 c5 -11 44 -103 88 -205z"/>
<path d="M5722 1168 l3 -503 475 0 475 0 3 103 3 102 -366 0 -365 0 0 100 0
100 310 0 310 0 0 100 0 100 -310 0 -310 0 0 95 c0 92 1 95 23 95 12 0 175 1
362 3 l340 2 0 100 0 100 -478 3 -477 2 2 -502z"/>
<path d="M6860 1164 l0 -505 118 3 117 3 3 173 2 172 129 0 129 0 112 -175
112 -175 124 0 c78 0 124 4 124 10 0 6 -49 84 -109 174 l-110 164 47 7 c67 9
128 41 152 79 18 31 20 50 20 240 0 221 -5 251 -51 293 -44 39 -86 43 -511 43
l-408 0 0 -506z m730 188 c3 -61 4 -117 2 -126 -3 -14 -31 -16 -248 -16 l-244
0 0 123 c0 68 2 126 4 128 2 2 112 3 243 2 l238 -2 5 -109z"/>
<path d="M8125 1658 c-43 -15 -84 -57 -96 -98 -6 -21 -9 -109 -7 -217 3 -165
5 -184 24 -210 44 -61 59 -63 392 -63 l302 0 0 -100 0 -100 -244 0 -245 0 -3
38 -3 37 -115 0 -115 0 1 -90 c0 -102 15 -139 68 -171 29 -18 58 -19 386 -21
383 -3 421 1 464 46 36 38 45 99 42 286 -3 178 -10 205 -68 247 -33 23 -37 23
-346 26 l-313 3 3 97 c2 53 6 96 11 95 4 -2 113 -3 242 -3 l235 0 0 -39 0 -40
118 2 117 2 -2 87 c-1 97 -16 134 -66 172 -28 20 -40 21 -390 23 -237 1 -372
-2 -392 -9z"/>
<path d="M9197 1664 c-8 -9 -9 -967 -1 -988 5 -14 23 -16 120 -15 l114 1 0
224 c0 123 3 224 8 224 4 0 108 -101 232 -225 l225 -225 163 0 c90 0 162 4
160 8 -1 5 -124 125 -273 268 -148 142 -271 261 -272 264 -1 3 117 106 262
230 145 124 264 228 264 233 1 4 -70 7 -156 7 l-158 -1 -225 -199 -225 -199
-3 199 -2 200 -114 0 c-62 0 -116 -3 -119 -6z"/>
</g>
</svg>
